<?xml version="1.0" encoding="utf-8"?>
<!-- Generator: Adobe Illustrator 24.1.3, SVG Export Plug-In . SVG Version: 6.00 Build 0)  -->
<svg version="1.1" id="Layer_1" xmlns="http://www.w3.org/2000/svg" xmlns:xlink="http://www.w3.org/1999/xlink" x="0px" y="0px"
	 viewBox="0 0 1366 768" style="enable-background:new 0 0 1366 768;" xml:space="preserve">
<style type="text/css">
	.st0{fill:#007AB4;}
	.st1{fill:#000C4A;}
	.st2{fill:#55A6FF;}
	.st3{fill:#000C4A;stroke:#000000;stroke-miterlimit:10;}
</style>
<polygon class="st0" points="145.65,20.5 507.93,159.15 663,218.5 599.65,395.5 77.5,207.5 "/>
<path class="st1" d="M492.5,204.93c6.51-16.98,13.03-33.96,19.54-50.93l170.46,61.79l-102,280.24l-36,113.48l-167-55.26V253.78
	c-1.33-29.11-2.67-58.22-4-87.33C413.17,179.28,452.83,192.11,492.5,204.93z"/>
<path class="st2" d="M377,554L77,207.95c40.67-16.65,81.33-33.3,122-49.95c17.15,36.51,34.3,73.01,51.46,109.52"/>
<path class="st3" d="M763.5,488.5"/>
<path class="st3" d="M854.5,514.5"/>
</svg>
